<?xml version="1.0" encoding="UTF-8"?><svg id="Ebene_1" xmlns="http://www.w3.org/2000/svg" viewBox="0 0 761.3 38.03"><defs><style>.cls-1{fill:#778181;}</style></defs><path class="cls-1" d="M67.68,27.23c-1.13-.3-2.18-.66-3.14-1.09l-.7-4.51c-.09-.47,0-.85.24-1.14.24-.29.55-.42.93-.38.37.03.71.25,1.01.66,1.54,2.13,2.78,3.63,3.73,4.5.95.86,1.73,1.3,2.35,1.3.4,0,.7-.19.9-.58.19-.38.29-1.1.29-2.14V4.8h4.42l.06,14.88c0,2.71-.62,4.72-1.87,6.03-1.25,1.31-2.94,1.97-5.07,1.97-.96,0-2-.15-3.14-.45Z"/><path class="cls-1" d="M91.98,26.62c-1.18-.7-2.11-1.67-2.77-2.9-.66-1.23-.99-2.61-.99-4.14,0-1.64.37-3.16,1.12-4.54.75-1.39,1.76-2.49,3.06-3.3,1.29-.81,2.73-1.22,4.3-1.22,1.43,0,2.72.35,3.89,1.06,1.16.7,2.07,1.69,2.74,2.94s.99,2.7.99,4.32-.36,3.17-1.07,4.51c-.72,1.34-1.7,2.4-2.96,3.17-1.26.77-2.68,1.15-4.26,1.15s-2.86-.35-4.05-1.06ZM100.22,25.42c.36-.25.63-.6.82-1.06s.27-1.01.27-1.65c0-1.37-.39-2.85-1.17-4.46-.78-1.61-1.77-2.97-2.96-4.08-1.2-1.11-2.36-1.66-3.49-1.66-.51,0-.95.12-1.31.37-.36.25-.63.6-.82,1.06-.18.46-.27,1.01-.27,1.65,0,1.37.39,2.85,1.18,4.46.79,1.61,1.78,2.97,2.96,4.08s2.34,1.66,3.47,1.66c.51,0,.95-.12,1.31-.37Z"/><path class="cls-1" d="M115.61,8.14c-.43-.37-.63-.86-.61-1.46,0-.6.22-1.1.66-1.52.44-.42.99-.62,1.65-.62.62,0,1.14.19,1.57.56.43.37.64.86.64,1.46-.02.6-.25,1.1-.69,1.52-.44.42-.99.62-1.65.62-.62,0-1.14-.19-1.57-.56ZM115.16,11.01h4.16v16.19h-4.16V11.01Z"/><path class="cls-1" d="M131.48,15.87l-.51-4.54,4.13-.64.54,4.61v11.9h-4.16v-11.33ZM140.88,14.27c-.39-.6-.99-.9-1.78-.9-.64,0-1.29.21-1.95.64-.66.43-1.29,1.01-1.89,1.76l-.06-.9c.7-1.26,1.6-2.29,2.69-3.1s2.2-1.22,3.33-1.22c1.3,0,2.36.57,3.18,1.71.82,1.14,1.23,2.73,1.23,4.75v10.18h-4.16v-10.46c0-1.04-.2-1.87-.59-2.46Z"/><path class="cls-1" d="M173,26.5c-.67-.79-1.01-2.15-1.01-4.1l.06-10.27h-1.66v-.64l5.76-5.09v4.61h6.27v1.12h-6.27v12.16c0,.96.05,1.59.14,1.89.1.3.24.45.43.45.3,0,.76-.42,1.39-1.25.63-.83,1.34-1.99,2.13-3.49.17-.3.4-.48.69-.54.29-.06.54,0,.77.19.22.19.34.47.34.83v3.62c-.94.47-1.95.87-3.02,1.2-1.08.33-2.11.5-3.09.5-1.28,0-2.26-.39-2.93-1.18Z"/><path class="cls-1" d="M192.86,5.15l4.16-.67v22.72h-4.16V5.15ZM202.41,14.24c-.39-.6-.99-.9-1.78-.9-.66,0-1.33.21-2.02.62s-1.34,1-1.98,1.74v-.74c.72-1.28,1.64-2.34,2.74-3.17s2.22-1.26,3.38-1.28c1.32,0,2.39.58,3.2,1.73.81,1.15,1.22,2.74,1.22,4.77v10.14h-4.16v-10.43c0-1.07-.2-1.9-.59-2.5Z"/><path class="cls-1" d="M221.48,26.64c-1.18-.69-2.11-1.65-2.77-2.86-.66-1.22-.99-2.6-.99-4.16s.37-3.12,1.1-4.51c.74-1.39,1.74-2.49,3.01-3.31,1.27-.82,2.68-1.23,4.24-1.23,1.24,0,2.32.26,3.25.78.93.52,1.64,1.22,2.14,2.1s.75,1.82.75,2.85c0,.75-.13,1.3-.38,1.65-.26.35-.57.57-.94.66-.37.09-.86.13-1.46.13h-8.38v-1.09h8.29l-1.47.86.03-.83c0-.92-.12-1.82-.35-2.72-.23-.9-.61-1.64-1.12-2.24-.51-.6-1.15-.9-1.92-.9-.64,0-1.18.2-1.63.59-.45.39-.79.95-1.04,1.66-.25.72-.37,1.55-.37,2.51,0,1.22.23,2.46.69,3.74.46,1.28,1.18,2.36,2.18,3.25.99.88,2.23,1.33,3.73,1.33.64,0,1.25-.11,1.82-.34.58-.22,1.14-.57,1.7-1.04l.45.51c-.81,1.13-1.74,2.02-2.8,2.67s-2.31.98-3.76.98-2.8-.35-3.98-1.04Z"/><path class="cls-1" d="M257.85,15.87l-.51-4.54,4.13-.64.54,4.64v11.87h-4.16v-11.33ZM267,14.29c-.36-.61-.87-.91-1.5-.91s-1.29.21-1.95.62c-.66.42-1.29,1-1.89,1.74l-.1-.86c.68-1.22,1.56-2.24,2.62-3.07,1.07-.83,2.14-1.25,3.23-1.25s1.97.41,2.72,1.22c.75.81,1.23,1.95,1.44,3.42h.13v12h-4.16v-10.46c0-1.02-.18-1.84-.54-2.45ZM276.73,14.29c-.36-.61-.86-.91-1.5-.91s-1.29.21-1.95.62c-.66.42-1.29,1-1.89,1.74l-.13-.9c.7-1.22,1.59-2.23,2.66-3.06s2.14-1.23,3.23-1.23c1.28,0,2.31.57,3.1,1.7.79,1.13,1.18,2.72,1.18,4.77v10.18h-4.16v-10.46c0-1.02-.18-1.84-.54-2.45Z"/><path class="cls-1" d="M292.76,26.53c-.68-.7-1.02-1.6-1.02-2.69,0-.68.16-1.31.48-1.89s.85-1.15,1.58-1.71,1.73-1.16,2.99-1.78l1.22-.61,4.29-2.02v1.12l-2.69,1.25c-1.34.64-2.33,1.28-2.94,1.9-.62.63-.93,1.3-.93,2s.23,1.25.7,1.7c.47.45,1.09.67,1.86.67.53,0,1.1-.12,1.7-.37.6-.25,1.08-.58,1.44-1.01l.29.51c-.6,1.17-1.4,2.13-2.4,2.86-1,.74-2.19,1.1-3.55,1.1s-2.33-.35-3.01-1.06ZM301.37,23.46v-9.38c0-1-.08-1.68-.22-2.03-.15-.35-.38-.53-.7-.53-.49,0-1.12.33-1.89.98-.77.65-1.89,1.82-3.36,3.5-.28.32-.58.49-.91.51-.33.02-.6-.1-.8-.37-.2-.27-.27-.61-.21-1.04l.51-3.23c.7-.34,1.64-.65,2.82-.93,1.17-.28,2.25-.42,3.23-.42,1.77,0,3.18.53,4.22,1.6,1.04,1.07,1.56,2.83,1.54,5.28l-.06,5.47.8,4.32h-4.22l-.74-3.74Z"/><path class="cls-1" d="M317.56,15.87l-.51-4.54,4.13-.64.54,4.64v11.87h-4.16v-11.33ZM324.25,12.02c1.11-.88,2.27-1.33,3.49-1.33v3.26c0,.45-.15.79-.45,1.02-.3.24-.66.32-1.09.26-1.13-.17-2.16-.17-3.07,0-.92.17-1.62.53-2.11,1.09v-.45c1.04-1.69,2.12-2.97,3.23-3.86Z"/><path class="cls-1" d="M338.2,5.15l4.16-.67v22.72h-4.16V5.15ZM341.63,17.57l3.65-.58,7.55,10.21h-4.96l-6.24-9.63ZM344.35,17.38l2.91-6.34,3.14-.06c.43,0,.76.12.99.35s.32.52.26.85c-.06.33-.27.62-.61.88-2.45,1.69-4.3,3.22-5.54,4.61l-1.15-.29Z"/><path class="cls-1" d="M364.84,26.64c-1.18-.69-2.11-1.65-2.77-2.86-.66-1.22-.99-2.6-.99-4.16s.37-3.12,1.1-4.51c.74-1.39,1.74-2.49,3.01-3.31,1.27-.82,2.68-1.23,4.24-1.23,1.24,0,2.32.26,3.25.78.93.52,1.64,1.22,2.14,2.1s.75,1.82.75,2.85c0,.75-.13,1.3-.38,1.65-.26.35-.57.57-.95.66-.37.09-.86.13-1.46.13h-8.38v-1.09h8.29l-1.47.86.03-.83c0-.92-.12-1.82-.35-2.72-.23-.9-.61-1.64-1.12-2.24-.51-.6-1.15-.9-1.92-.9-.64,0-1.18.2-1.63.59-.45.39-.79.95-1.04,1.66-.25.72-.37,1.55-.37,2.51,0,1.22.23,2.46.69,3.74.46,1.28,1.18,2.36,2.18,3.25.99.88,2.23,1.33,3.73,1.33.64,0,1.25-.11,1.82-.34.58-.22,1.14-.57,1.7-1.04l.45.51c-.81,1.13-1.74,2.02-2.8,2.67-1.06.65-2.31.98-3.76.98s-2.8-.35-3.98-1.04Z"/><path class="cls-1" d="M387.31,26.5c-.67-.79-1.01-2.15-1.01-4.1l.06-10.27h-1.66v-.64l5.76-5.09v4.61h6.27v1.12h-6.27v12.16c0,.96.05,1.59.14,1.89.1.3.24.45.43.45.3,0,.76-.42,1.39-1.25s1.34-1.99,2.13-3.49c.17-.3.4-.48.69-.54.29-.06.54,0,.77.19.22.19.34.47.34.83v3.62c-.94.47-1.95.87-3.02,1.2-1.08.33-2.11.5-3.09.5-1.28,0-2.26-.39-2.93-1.18Z"/><path class="cls-1" d="M407.35,15.2l-.42-3.87,4.06-.64.48,3.97v3.65c0,1.62.26,3.06.77,4.32.51,1.26,1.14,2.23,1.89,2.91.75.68,1.48,1.02,2.21,1.02.87,0,1.53-.48,1.95-1.44s.64-2.12.64-3.49c-.02-1.24-.21-2.52-.56-3.84-.35-1.32-.88-2.44-1.57-3.34-.69-.91-1.53-1.37-2.51-1.39-.53,0-1.06.16-1.58.48-.52.32-1.04.83-1.55,1.54v-1.09c.66-1.02,1.45-1.86,2.37-2.5.92-.64,1.93-.96,3.04-.96,1.04,0,2.05.29,3.01.86.96.58,1.74,1.45,2.35,2.62.61,1.17.91,2.59.91,4.26,0,1.81-.35,3.44-1.06,4.86-.7,1.43-1.63,2.54-2.77,3.34-1.14.8-2.32,1.2-3.54,1.2-.75,0-1.48-.15-2.21-.45-.73-.3-1.39-.74-2-1.31-.61-.58-1.08-1.27-1.42-2.08l1.63-5.54-.16,15.46h-3.97V15.2Z"/><path class="cls-1" d="M433.88,5.15l4.16-.67v22.72h-4.16V5.15Z"/><path class="cls-1" d="M449.75,26.53c-.68-.7-1.02-1.6-1.02-2.69,0-.68.16-1.31.48-1.89.32-.58.85-1.15,1.58-1.71.74-.57,1.73-1.16,2.99-1.78l1.22-.61,4.29-2.02v1.12l-2.69,1.25c-1.34.64-2.33,1.28-2.94,1.9-.62.63-.93,1.3-.93,2s.23,1.25.7,1.7c.47.45,1.09.67,1.86.67.53,0,1.1-.12,1.7-.37.6-.25,1.08-.58,1.44-1.01l.29.51c-.6,1.17-1.4,2.13-2.4,2.86-1,.74-2.19,1.1-3.55,1.1s-2.33-.35-3.01-1.06ZM458.36,23.46v-9.38c0-1-.08-1.68-.22-2.03-.15-.35-.38-.53-.7-.53-.49,0-1.12.33-1.89.98-.77.65-1.89,1.82-3.36,3.5-.28.32-.58.49-.91.51-.33.02-.6-.1-.8-.37-.2-.27-.27-.61-.21-1.04l.51-3.23c.7-.34,1.64-.65,2.82-.93,1.17-.28,2.25-.42,3.23-.42,1.77,0,3.18.53,4.22,1.6,1.04,1.07,1.56,2.83,1.54,5.28l-.06,5.47.8,4.32h-4.22l-.74-3.74Z"/><path class="cls-1" d="M476.94,26.64c-1.18-.69-2.1-1.65-2.75-2.88-.65-1.23-.98-2.61-.98-4.14,0-1.66.38-3.19,1.15-4.58.77-1.39,1.8-2.49,3.1-3.3,1.3-.81,2.73-1.22,4.29-1.22.83,0,1.66.11,2.5.32.83.21,1.46.47,1.89.77l.61,3.78c.06.38-.01.7-.22.94-.21.25-.48.36-.8.34-.32-.02-.61-.19-.86-.51-1.11-1.37-2.14-2.35-3.1-2.94-.96-.6-1.82-.9-2.59-.9-.62,0-1.13.16-1.54.48s-.7.75-.88,1.28c-.18.53-.27,1.13-.27,1.79,0,1.32.3,2.67.91,4.03.61,1.37,1.45,2.5,2.53,3.39,1.08.9,2.28,1.34,3.6,1.34.62,0,1.2-.1,1.74-.3.54-.2,1.03-.47,1.46-.82l.48.48c-.88,1.17-1.77,2.08-2.69,2.72-.92.64-2.09.96-3.52.96-1.52,0-2.86-.35-4.05-1.04Z"/><path class="cls-1" d="M500.39,26.64c-1.18-.69-2.11-1.65-2.77-2.86-.66-1.22-.99-2.6-.99-4.16s.37-3.12,1.1-4.51c.74-1.39,1.74-2.49,3.01-3.31,1.27-.82,2.68-1.23,4.24-1.23,1.24,0,2.32.26,3.25.78.93.52,1.64,1.22,2.14,2.1.5.88.75,1.82.75,2.85,0,.75-.13,1.3-.38,1.65-.26.35-.57.57-.94.66-.37.09-.86.13-1.46.13h-8.38v-1.09h8.29l-1.47.86.03-.83c0-.92-.12-1.82-.35-2.72-.24-.9-.61-1.64-1.12-2.24-.51-.6-1.15-.9-1.92-.9-.64,0-1.18.2-1.63.59-.45.39-.79.95-1.04,1.66-.25.72-.37,1.55-.37,2.51,0,1.22.23,2.46.69,3.74.46,1.28,1.18,2.36,2.18,3.25.99.88,2.23,1.33,3.73,1.33.64,0,1.25-.11,1.82-.34.58-.22,1.14-.57,1.7-1.04l.45.51c-.81,1.13-1.74,2.02-2.8,2.67s-2.31.98-3.76.98-2.8-.35-3.98-1.04Z"/><path class="cls-1" d="M539.05,26.62c-1.18-.7-2.11-1.67-2.77-2.9-.66-1.23-.99-2.61-.99-4.14,0-1.64.37-3.16,1.12-4.54.75-1.39,1.76-2.49,3.06-3.3s2.73-1.22,4.3-1.22c1.43,0,2.72.35,3.89,1.06,1.16.7,2.07,1.69,2.74,2.94.66,1.26.99,2.7.99,4.32s-.36,3.17-1.07,4.51c-.71,1.34-1.7,2.4-2.96,3.17-1.26.77-2.68,1.15-4.26,1.15s-2.86-.35-4.05-1.06ZM547.29,25.42c.36-.25.63-.6.82-1.06.18-.46.27-1.01.27-1.65,0-1.37-.39-2.85-1.17-4.46-.78-1.61-1.77-2.97-2.96-4.08-1.19-1.11-2.36-1.66-3.49-1.66-.51,0-.95.12-1.31.37-.36.25-.63.6-.82,1.06-.18.46-.27,1.01-.27,1.65,0,1.37.39,2.85,1.18,4.46.79,1.61,1.78,2.97,2.96,4.08,1.18,1.11,2.34,1.66,3.47,1.66.51,0,.95-.12,1.31-.37Z"/><path class="cls-1" d="M562.46,12.13h-1.82v-1.12h1.82v-.54c0-1.34.36-2.48,1.09-3.41.72-.93,1.59-1.62,2.61-2.06,1.01-.45,1.95-.67,2.8-.67l.51,3.14c.08.53-.03.94-.35,1.23-.32.29-.77.35-1.34.18-1-.32-1.89-.48-2.66-.48-.47.02-.85.1-1.15.24s-.45.36-.45.66c0,.41.29.77.86,1.09.58.32,1.27.53,2.08.64h2.91v1.12h-2.75v15.07h-4.16v-15.07Z"/><path class="cls-1" d="M594.84,8.14c-.43-.37-.63-.86-.61-1.46,0-.6.22-1.1.66-1.52s.99-.62,1.65-.62c.62,0,1.14.19,1.57.56.43.37.64.86.64,1.46-.02.6-.25,1.1-.69,1.52s-.99.62-1.65.62c-.62,0-1.14-.19-1.57-.56ZM594.39,11.01h4.16v16.19h-4.16V11.01Z"/><path class="cls-1" d="M612.6,26.61c-.96-.65-1.72-1.55-2.27-2.7-.55-1.15-.83-2.44-.83-3.87-.06-1.66.23-3.23.88-4.69.65-1.46,1.56-2.63,2.72-3.5,1.16-.87,2.44-1.31,3.82-1.31.62,0,1.2.08,1.73.24.53.16,1.03.4,1.5.7.47.31.93.71,1.38,1.2l-.74.7V5.12l4.1-.64v17.86l.77,4.86h-4.13l-.74-3.71-.03-3.62c0-1.64-.25-3.09-.75-4.34-.5-1.25-1.13-2.21-1.87-2.88-.75-.67-1.48-1.01-2.21-1.01-.85,0-1.49.48-1.92,1.44-.43.96-.64,2.11-.64,3.46.02,1.24.2,2.51.54,3.82.34,1.31.86,2.42,1.55,3.33.69.91,1.53,1.36,2.51,1.36.51,0,1.02-.14,1.52-.43s1-.75,1.49-1.39l.19.83c-.85,1.39-1.74,2.32-2.67,2.8-.93.48-1.82.72-2.67.72-1.19,0-2.27-.33-3.23-.98Z"/><path class="cls-1" d="M639.59,26.64c-1.18-.69-2.11-1.65-2.77-2.86-.66-1.22-.99-2.6-.99-4.16s.37-3.12,1.1-4.51c.74-1.39,1.74-2.49,3.01-3.31,1.27-.82,2.68-1.23,4.24-1.23,1.24,0,2.32.26,3.25.78.93.52,1.64,1.22,2.14,2.1.5.88.75,1.82.75,2.85,0,.75-.13,1.3-.38,1.65-.26.35-.57.57-.94.66-.37.09-.86.13-1.46.13h-8.38v-1.09h8.29l-1.47.86.03-.83c0-.92-.12-1.82-.35-2.72-.24-.9-.61-1.64-1.12-2.24-.51-.6-1.15-.9-1.92-.9-.64,0-1.18.2-1.63.59-.45.39-.79.95-1.04,1.66-.25.72-.37,1.55-.37,2.51,0,1.22.23,2.46.69,3.74.46,1.28,1.18,2.36,2.18,3.25.99.88,2.23,1.33,3.73,1.33.64,0,1.25-.11,1.82-.34.58-.22,1.14-.57,1.7-1.04l.45.51c-.81,1.13-1.74,2.02-2.8,2.67s-2.31.98-3.76.98-2.8-.35-3.98-1.04Z"/><path class="cls-1" d="M660.73,26.53c-.68-.7-1.02-1.6-1.02-2.69,0-.68.16-1.31.48-1.89.32-.58.85-1.15,1.58-1.71.74-.57,1.73-1.16,2.99-1.78l1.22-.61,4.29-2.02v1.12l-2.69,1.25c-1.34.64-2.33,1.28-2.94,1.9-.62.63-.93,1.3-.93,2s.23,1.25.7,1.7c.47.45,1.09.67,1.86.67.53,0,1.1-.12,1.7-.37.6-.25,1.08-.58,1.44-1.01l.29.51c-.6,1.17-1.4,2.13-2.4,2.86-1,.74-2.19,1.1-3.55,1.1s-2.33-.35-3.01-1.06ZM669.34,23.46v-9.38c0-1-.08-1.68-.22-2.03-.15-.35-.38-.53-.7-.53-.49,0-1.12.33-1.89.98-.77.65-1.89,1.82-3.36,3.5-.28.32-.58.49-.91.51-.33.02-.6-.1-.8-.37-.2-.27-.27-.61-.21-1.04l.51-3.23c.7-.34,1.64-.65,2.82-.93,1.17-.28,2.25-.42,3.23-.42,1.77,0,3.18.53,4.22,1.6,1.04,1.07,1.56,2.83,1.54,5.28l-.06,5.47.8,4.32h-4.22l-.74-3.74Z"/><path class="cls-1" d="M687.71,27.12c-1.15-.37-2.12-.8-2.91-1.3l-.54-3.39c-.04-.34.02-.62.19-.85s.39-.34.67-.35.54.09.8.3c1.3,1.15,2.74,2.12,4.32,2.9,1.58.78,2.86,1.17,3.84,1.17.43,0,.77-.08,1.04-.24.27-.16.4-.42.4-.78,0-.26-.12-.52-.37-.8s-.76-.68-1.55-1.22c-.79-.53-1.98-1.26-3.58-2.18-1.15-.68-2.06-1.26-2.74-1.73-.67-.47-1.24-1.02-1.7-1.66-.46-.64-.69-1.38-.69-2.21,0-1.22.5-2.23,1.5-3.04s2.43-1.22,4.29-1.22c1.37,0,3,.27,4.9.8l.45,2.85c.06.45.01.8-.16,1.06-.17.26-.41.38-.72.38s-.62-.14-.94-.42c-1.11-.96-2.21-1.76-3.3-2.4-1.09-.64-1.96-.96-2.62-.96-.36,0-.67.09-.91.27-.25.18-.37.4-.37.66,0,.49.41,1.07,1.23,1.74s1.87,1.34,3.15,2c1.96,1.02,3.39,2.03,4.27,3.01.88.98,1.33,2.08,1.33,3.3,0,1.43-.51,2.6-1.54,3.5-1.02.91-2.44,1.36-4.26,1.36-1.17,0-2.34-.19-3.49-.56Z"/></svg>